<?xml version="1.0" encoding="utf-8"?>
<!-- Generator: Adobe Illustrator 15.0.2, SVG Export Plug-In . SVG Version: 6.00 Build 0)  -->
<!DOCTYPE svg PUBLIC "-//W3C//DTD SVG 1.1 Tiny//EN" "http://www.w3.org/Graphics/SVG/1.1/DTD/svg11-tiny.dtd">
<svg version="1.1" baseProfile="tiny" id="Layer_1" xmlns="http://www.w3.org/2000/svg" xmlns:xlink="http://www.w3.org/1999/xlink"
	 x="0px" y="0px" width="100px" height="100px" viewBox="0 0 100 100" xml:space="preserve">
<circle cx="50" cy="50" r="49.332"/>
<g>
	<path fill="#FFFFFF" d="M58.204,74.259c-0.6-2.579-0.658-5.338-0.053-8.102c0.604-2.768,1.762-5.244,3.406-7.271l1.163,0.278
		c-1.642,2.032-2.803,4.506-3.405,7.274c-0.596,2.765-0.542,5.526,0.052,8.11L58.204,74.259z"/>
	<path fill="#FFFFFF" d="M55.344,75.194c-0.749-3.093-0.829-6.423-0.108-9.756c0.728-3.334,2.138-6.292,4.132-8.719l1.167,0.288
		c-1.99,2.426-3.407,5.388-4.134,8.718c-0.725,3.335-0.641,6.664,0.109,9.76L55.344,75.194z"/>
	<path fill="#FFFFFF" d="M52.479,76.133c-0.893-3.614-1.004-7.508-0.151-11.398c0.845-3.903,2.51-7.359,4.851-10.181l1.165,0.288
		c-2.338,2.82-4.007,6.285-4.857,10.176c-0.841,3.892-0.736,7.786,0.163,11.401L52.479,76.133z"/>
	<path fill="#FFFFFF" d="M40.725,56.719l-1.169,0.284c1.994,2.429,3.404,5.396,4.131,8.722c0.727,3.334,0.648,6.662-0.101,9.759
		l1.164-0.291c0.751-3.092,0.83-6.421,0.105-9.756C44.126,62.104,42.721,59.146,40.725,56.719z M38.535,58.885l-1.165,0.279
		c1.642,2.035,2.804,4.506,3.409,7.278c0.597,2.761,0.545,5.522-0.057,8.106l1.167-0.29c0.6-2.579,0.655-5.338,0.051-8.102
		C41.338,63.384,40.181,60.913,38.535,58.885z M60.575,72.946c-0.722,3.055-2.018,9.085-2.019,9.351
		c0.001,1.56,1.42,3.061,3.14,3.061c1.331,0,2.255-0.506,3.107-2.157c0.768,0.048,2.017,0.148,2.264,0.148
		c3.499,0,7.496-1.826,10.072-5.488l3.386,0.942c1.701-4.533,1.497-9.177,4.805-13.542l-2.095-8.648l1.917-9.256
		c0.475-0.203,0.989-0.645,1.51-1.115c0.635-0.745,0.755-1.437,0.755-2.381c0-1.685-0.269-3.589-0.744-5.584
		c-1.419-5.985-4.684-13.831-8.06-18.075c-4.594-5.785-10.53-9.586-15.605-11.562c-4.905-1.926-8.553-2.392-13.055-2.392
		c-6.27,0-12.586,1.499-18.834,5.309c-3.247,1.983-7.266,5.359-9.741,8.644c-1.497,1.981-4.77,6.95-6.105,10.587
		c-0.827,2.241-1.752,6.479-1.97,7.679c-0.32,1.771-0.72,3.599-0.72,5.395c-0.002,1.054,0.286,2.259,1.616,3.174
		c0.163,0.099,0.59,0.136,0.642,0.321c0.743,2.707,1.328,6.525,1.922,9.255l-2.085,8.652c3.556,4.523,3.144,9.005,4.799,13.544
		l3.439-0.945c2.955,3.847,6.502,5.485,10.066,5.485c0.251,0,1.551-0.1,2.22-0.213c0.838,1.73,1.837,2.222,3.059,2.222
		c1.27-0.001,3.184-1.043,3.182-3.007c-0.002-0.128-0.911-4.779-2.154-10.64c0.05-0.457,0.071-0.92,0.078-1.385
		c0.002-0.16-0.002-0.319-0.004-0.481c-0.007-0.344-0.023-0.692-0.055-1.041c-0.014-0.153-0.024-0.306-0.042-0.457
		c-0.057-0.491-0.13-0.983-0.237-1.477c-0.107-0.494-0.242-0.974-0.393-1.446c-0.049-0.15-0.103-0.299-0.159-0.45
		c-0.111-0.316-0.233-0.628-0.364-0.931c-0.071-0.163-0.142-0.326-0.218-0.485c-0.154-0.325-0.326-0.638-0.503-0.944
		c-0.063-0.105-0.116-0.218-0.18-0.32l0,0c-0.81-3.515-1.633-6.88-2.372-9.508c-0.352-1.257-1.854-1.416-2.651-1.416
		c-0.669,0-1.726,0.308-2.273,0.888c-0.336,0.344-0.49,1.161-0.877,1.293c-4.018,1.494-9.04,7.722-8.629,11.602
		c0.027,0.25-0.244,0.378-0.429,0.574h-2.75c-0.284-0.302-0.477-0.617-0.769-0.911l1.999-8.042l-2.002-9.192
		c3.635-0.553,2.854-4.83,3.419-6.977c0.703-2.734,1.42-6.531,2.681-9.264c1.779-3.905,5.431-8.756,9.51-11.695
		c6.58-4.761,11.567-6.12,17.934-6.12c8.175,0,18.259,3.439,25.15,13.808c2.663,4.012,4.052,9.363,4.972,13.269
		c0.508,2.174-0.224,6.425,3.424,6.978l-1.997,9.088l1.994,8.146c-0.29,0.295-0.486,0.608-0.768,0.913h-2.748
		c-0.869-0.92-0.584-2.229-0.808-3.234c-0.324-1.437-1.638-3.53-2.695-4.88c-1.009-1.278-2.38-2.426-3.562-3.044
		c-0.67-0.353-1.647-0.427-1.967-1c-0.801-1.406-2.21-2.199-3.183-2.198c-0.784,0-2.286,0.142-2.657,1.414
		c-0.968,3.182-1.702,6.438-2.382,9.702c-0.782,1.313-1.361,2.785-1.71,4.384c0,0-0.415,1.867-0.415,2.936
		C60.648,70.87,60.575,72.946,60.575,72.946z M42.914,54.554l-1.167,0.288c2.339,2.816,4.012,6.281,4.855,10.176
		c0.848,3.89,0.744,7.784-0.158,11.401l1.162-0.285c0.902-3.613,1.008-7.507,0.16-11.402C46.917,60.831,45.25,57.375,42.914,54.554z
		"/>
	<path fill="#FFFFFF" d="M62.278,44.695h-13.44v-2.921l9.481-16.018h-8.977l0.002-2.923l12.549,0.001v2.922l-9.419,16.018h9.804
		V44.695z M46.394,22.834v15.687c0,0.612-0.051,1.179-0.146,1.709c-0.091,0.525-0.223,0.991-0.383,1.399
		c-0.506,1.151-1.246,2.017-2.218,2.599c-0.97,0.589-2.059,0.883-3.272,0.883c-1.465-0.018-2.759-0.45-3.884-1.299
		c-1.129-0.845-1.843-2.003-2.149-3.484h3.284c0.359,0.85,0.819,1.384,1.363,1.593c0.544,0.21,1.013,0.3,1.409,0.266
		c0.558,0.005,1.075-0.146,1.538-0.446c0.473-0.297,0.817-0.77,1.035-1.418c0.059-0.224,0.117-0.476,0.162-0.755
		c0.045-0.279,0.071-0.567,0.071-0.871V22.833L46.394,22.834z"/>
	<g>
		<path fill="#FFFFFF" d="M67.137,90.169h-0.93v-0.266c0.006-0.271-0.063-0.448-0.212-0.51c-0.152-0.068-0.431-0.099-0.828-0.088
			c-0.307-0.008-0.546,0.02-0.697,0.072c-0.168,0.055-0.269,0.159-0.327,0.318c-0.053,0.166-0.079,0.399-0.079,0.715l-0.002,1.076
			c0.002,0.318,0.023,0.563,0.076,0.734c0.05,0.166,0.151,0.278,0.312,0.335c0.155,0.063,0.396,0.095,0.716,0.093
			c0.251,0.002,0.458-0.007,0.618-0.035c0.16-0.024,0.283-0.085,0.356-0.19c0.082-0.103,0.118-0.27,0.118-0.495v-0.266h0.929v0.314
			C67.19,92.458,67.11,92.8,66.94,93s-0.411,0.325-0.708,0.365c-0.309,0.045-0.661,0.072-1.066,0.082
			c-0.563,0.022-0.99-0.029-1.285-0.161c-0.291-0.121-0.492-0.327-0.589-0.619c-0.108-0.29-0.157-0.668-0.157-1.139v-1.115
			c-0.006-0.512,0.062-0.914,0.205-1.185c0.144-0.275,0.36-0.467,0.664-0.574c0.298-0.103,0.687-0.154,1.162-0.15
			c0.405-0.004,0.749,0.014,1.034,0.06c0.287,0.041,0.505,0.167,0.668,0.363c0.158,0.196,0.244,0.523,0.265,0.98L67.137,90.169z
			 M51.774,91.855h0.932v0.221c-0.008,0.275,0.07,0.439,0.227,0.512c0.166,0.071,0.454,0.103,0.875,0.094
			c0.278,0,0.49-0.018,0.628-0.062c0.141-0.044,0.232-0.122,0.276-0.223c0.047-0.107,0.066-0.254,0.066-0.438
			c0-0.224-0.047-0.385-0.135-0.461c-0.078-0.091-0.197-0.137-0.365-0.152l-0.6-0.028c-0.354-0.012-0.673-0.044-0.95-0.092
			c-0.284-0.042-0.508-0.168-0.678-0.361c-0.165-0.195-0.248-0.521-0.254-0.986c0.006-0.438,0.093-0.754,0.264-0.948
			c0.172-0.195,0.406-0.32,0.707-0.366c0.299-0.046,0.651-0.065,1.038-0.063c0.337-0.003,0.641,0.014,0.909,0.063
			c0.273,0.041,0.485,0.155,0.649,0.336c0.156,0.196,0.241,0.501,0.241,0.916v0.157h-0.931V89.82
			c0.006-0.257-0.057-0.412-0.186-0.478c-0.134-0.059-0.355-0.084-0.683-0.073c-0.306,0-0.533,0.011-0.69,0.045
			c-0.155,0.028-0.261,0.089-0.311,0.176c-0.059,0.091-0.077,0.218-0.074,0.389c0,0.197,0.017,0.335,0.067,0.427
			c0.047,0.088,0.149,0.153,0.306,0.182c0.153,0.028,0.384,0.049,0.695,0.066c0.495,0.023,0.88,0.066,1.164,0.126
			c0.271,0.065,0.47,0.194,0.582,0.378c0.108,0.196,0.166,0.494,0.162,0.901c-0.004,0.443-0.076,0.778-0.218,0.99
			c-0.138,0.214-0.354,0.349-0.636,0.411c-0.278,0.06-0.631,0.089-1.048,0.085c-0.363,0.006-0.695-0.01-1.006-0.046
			c-0.304-0.039-0.557-0.155-0.74-0.345c-0.188-0.194-0.281-0.516-0.286-0.975V91.855L51.774,91.855z M47.606,88.544l0.933-0.002
			l0.002,3.455c-0.012,0.444-0.09,0.77-0.264,0.976c-0.171,0.21-0.413,0.336-0.713,0.398c-0.304,0.058-0.659,0.078-1.053,0.074
			c-0.385,0.004-0.726-0.019-1.028-0.074c-0.301-0.058-0.542-0.188-0.719-0.391c-0.175-0.215-0.262-0.535-0.266-0.983v-3.455
			l0.935,0.002v3.453c-0.01,0.166,0.019,0.297,0.076,0.389c0.056,0.093,0.164,0.167,0.321,0.202c0.158,0.046,0.383,0.061,0.68,0.061
			c0.422,0.002,0.712-0.038,0.873-0.133c0.159-0.09,0.23-0.262,0.223-0.519L47.606,88.544L47.606,88.544z M40.167,89.31l-1.53,4.092
			h-0.839c0,0-0.018,0.005-1.56-4.075l0.08,4.08h-0.935v-4.864h1.499l1.322,3.608l1.319-3.608l1.529,0.002v4.862h-0.929l0.072-4.097
			H40.167L40.167,89.31z"/>
		<rect x="59.053" y="88.501" fill="#FFFFFF" width="0.693" height="4.859"/>
	</g>
</g>
</svg>
