<?xml version="1.0" encoding="utf-8"?>
<!-- Generator: Adobe Illustrator 15.0.2, SVG Export Plug-In . SVG Version: 6.00 Build 0)  -->
<!DOCTYPE svg PUBLIC "-//W3C//DTD SVG 1.1 Tiny//EN" "http://www.w3.org/Graphics/SVG/1.1/DTD/svg11-tiny.dtd">
<svg version="1.1" baseProfile="tiny" id="Layer_1" xmlns="http://www.w3.org/2000/svg" xmlns:xlink="http://www.w3.org/1999/xlink"
	 x="0px" y="0px" width="100px" height="100px" viewBox="0 0 100 100" xml:space="preserve">
<g>
	<path fill="#FFFFFF" d="M58.171,75.571c-0.632-2.719-0.692-5.627-0.056-8.541c0.637-2.916,1.857-5.527,3.591-7.664l1.226,0.293
		c-1.73,2.143-2.953,4.75-3.59,7.669c-0.628,2.913-0.571,5.825,0.054,8.548L58.171,75.571z"/>
	<path fill="#FFFFFF" d="M55.156,76.556c-0.791-3.26-0.873-6.77-0.113-10.283c0.766-3.513,2.252-6.632,4.354-9.19l1.23,0.304
		c-2.098,2.556-3.592,5.679-4.357,9.189c-0.764,3.514-0.676,7.023,0.115,10.287L55.156,76.556z"/>
	<path fill="#FFFFFF" d="M52.137,77.546c-0.941-3.809-1.058-7.914-0.161-12.016c0.89-4.114,2.646-7.756,5.114-10.73l1.228,0.303
		c-2.465,2.973-4.224,6.625-5.121,10.726c-0.886,4.103-0.776,8.207,0.173,12.018L52.137,77.546z"/>
	<path fill="#FFFFFF" d="M39.747,57.082l-1.232,0.299c2.102,2.561,3.588,5.687,4.355,9.194c0.766,3.514,0.683,7.023-0.107,10.287
		l1.227-0.307c0.792-3.26,0.875-6.77,0.111-10.283C43.332,62.76,41.85,59.641,39.747,57.082z M37.438,59.365l-1.228,0.294
		c1.731,2.146,2.956,4.75,3.593,7.673c0.629,2.909,0.575,5.821-0.06,8.544l1.23-0.305c0.633-2.719,0.691-5.627,0.055-8.541
		C40.393,64.108,39.173,61.503,37.438,59.365z M60.671,74.187c-0.761,3.22-2.126,9.577-2.128,9.856
		c0.002,1.645,1.496,3.226,3.309,3.226c1.404,0,2.376-0.533,3.275-2.273c0.811,0.049,2.125,0.156,2.387,0.156
		c3.688,0,7.9-1.926,10.617-5.785l3.569,0.993c1.792-4.779,1.578-9.673,5.064-14.274l-2.207-9.116l2.02-9.757
		c0.499-0.214,1.042-0.68,1.591-1.175c0.669-0.785,0.796-1.514,0.796-2.51c0-1.776-0.284-3.784-0.784-5.887
		c-1.497-6.308-4.938-14.578-8.496-19.052c-4.842-6.098-11.1-10.104-16.449-12.187c-5.17-2.03-9.016-2.521-13.762-2.521
		c-6.608,0-13.266,1.579-19.852,5.596c-3.423,2.09-7.659,5.649-10.268,9.111c-1.578,2.088-5.028,7.326-6.435,11.159
		c-0.871,2.363-1.847,6.829-2.076,8.094c-0.338,1.866-0.759,3.794-0.759,5.687c-0.003,1.111,0.301,2.38,1.703,3.345
		c0.171,0.104,0.622,0.143,0.676,0.339c0.783,2.853,1.4,6.877,2.027,9.757l-2.199,9.119c3.748,4.768,3.314,9.491,5.059,14.276
		l3.625-0.996c3.115,4.055,6.854,5.783,10.611,5.783c0.265,0,1.635-0.107,2.339-0.225c0.884,1.824,1.937,2.342,3.225,2.342
		c1.338-0.002,3.356-1.1,3.354-3.17c-0.002-0.135-0.96-5.037-2.271-11.215c0.053-0.482,0.075-0.97,0.082-1.459
		c0.002-0.17-0.002-0.338-0.005-0.508c-0.007-0.363-0.024-0.73-0.057-1.098c-0.015-0.162-0.026-0.322-0.045-0.482
		c-0.06-0.517-0.137-1.036-0.25-1.555c-0.113-0.522-0.255-1.027-0.414-1.525c-0.051-0.159-0.109-0.315-0.167-0.475
		c-0.117-0.334-0.246-0.661-0.384-0.98c-0.075-0.173-0.149-0.345-0.23-0.513c-0.163-0.342-0.343-0.672-0.53-0.995
		c-0.066-0.111-0.122-0.229-0.19-0.338l0,0c-0.854-3.703-1.721-7.252-2.5-10.022c-0.371-1.323-1.954-1.492-2.794-1.492
		c-0.706,0-1.819,0.325-2.396,0.936c-0.354,0.362-0.517,1.224-0.925,1.363c-4.235,1.575-9.528,8.139-9.096,12.229
		c0.029,0.264-0.257,0.397-0.452,0.605h-2.899c-0.299-0.318-0.503-0.651-0.811-0.961l2.107-8.477l-2.111-9.689
		c3.832-0.583,3.009-5.091,3.604-7.354c0.741-2.882,1.497-6.884,2.826-9.765c1.875-4.116,5.725-9.229,10.024-12.327
		c6.935-5.018,12.193-6.45,18.904-6.45c8.617,0,19.246,3.625,26.509,14.554c2.808,4.229,4.271,9.869,5.242,13.986
		c0.535,2.292-0.237,6.772,3.608,7.355l-2.104,9.58l2.101,8.586c-0.306,0.31-0.512,0.641-0.808,0.961h-2.897
		c-0.916-0.969-0.615-2.35-0.852-3.409c-0.341-1.513-1.726-3.721-2.842-5.142c-1.063-1.349-2.508-2.559-3.754-3.21
		c-0.705-0.371-1.736-0.449-2.072-1.053c-0.844-1.484-2.33-2.32-3.354-2.317c-0.828,0-2.412,0.148-2.803,1.489
		c-1.018,3.354-1.793,6.787-2.51,10.226c-0.824,1.385-1.434,2.938-1.801,4.623c0,0-0.438,1.968-0.438,3.093
		S60.671,74.187,60.671,74.187z M42.054,54.8l-1.23,0.303c2.466,2.969,4.229,6.621,5.118,10.726
		c0.894,4.101,0.783,8.206-0.167,12.018l1.225-0.3c0.951-3.809,1.063-7.914,0.169-12.02C46.273,61.416,44.516,57.774,42.054,54.8z"
		/>
	<path fill="#FFFFFF" d="M62.465,44.408H48.299v-3.079l9.994-16.884H48.83l0.002-3.081l13.229,0.001v3.08l-9.928,16.884h10.332
		V44.408z M45.722,21.365V37.9c0,0.645-0.054,1.243-0.154,1.801c-0.097,0.554-0.235,1.045-0.405,1.475
		c-0.533,1.213-1.313,2.126-2.337,2.74c-1.023,0.62-2.17,0.93-3.45,0.93c-1.544-0.018-2.908-0.474-4.093-1.369
		c-1.19-0.89-1.943-2.111-2.266-3.672h3.461c0.379,0.896,0.864,1.459,1.437,1.679c0.574,0.222,1.068,0.317,1.486,0.281
		c0.588,0.005,1.133-0.153,1.621-0.471c0.498-0.312,0.861-0.81,1.091-1.494c0.062-0.236,0.123-0.502,0.17-0.796
		c0.048-0.295,0.075-0.599,0.075-0.918V21.364L45.722,21.365z"/>
	<g>
		<path fill="#FFFFFF" d="M67.587,92.341h-0.98v-0.28c0.007-0.285-0.067-0.472-0.223-0.537c-0.161-0.073-0.454-0.104-0.874-0.093
			c-0.322-0.008-0.574,0.02-0.734,0.076c-0.178,0.057-0.283,0.168-0.347,0.336c-0.054,0.174-0.081,0.42-0.081,0.753l-0.002,1.134
			c0.002,0.336,0.023,0.594,0.08,0.775c0.052,0.174,0.158,0.293,0.328,0.352c0.164,0.068,0.418,0.1,0.754,0.098
			c0.266,0.002,0.483-0.007,0.652-0.037c0.169-0.026,0.299-0.089,0.376-0.201c0.087-0.107,0.124-0.284,0.124-0.521v-0.28h0.979
			v0.331c0.004,0.507-0.081,0.867-0.258,1.078c-0.181,0.211-0.435,0.343-0.747,0.385c-0.326,0.047-0.697,0.076-1.125,0.086
			c-0.592,0.025-1.043-0.031-1.354-0.169c-0.307-0.128-0.518-0.345-0.621-0.653c-0.113-0.305-0.166-0.704-0.166-1.201v-1.175
			c-0.006-0.54,0.066-0.962,0.217-1.248c0.152-0.291,0.379-0.493,0.699-0.606c0.313-0.107,0.725-0.162,1.225-0.158
			c0.428-0.004,0.79,0.013,1.09,0.063c0.303,0.042,0.533,0.176,0.705,0.382c0.166,0.207,0.256,0.552,0.279,1.033L67.587,92.341z
			 M51.393,94.118h0.984v0.234c-0.009,0.289,0.074,0.462,0.237,0.538c0.175,0.076,0.479,0.108,0.922,0.099
			c0.294,0,0.519-0.018,0.663-0.064c0.148-0.047,0.244-0.13,0.291-0.235c0.049-0.114,0.07-0.268,0.07-0.461
			c0-0.237-0.048-0.407-0.141-0.488c-0.083-0.095-0.209-0.143-0.386-0.16L53.4,93.552c-0.372-0.012-0.709-0.047-1.002-0.097
			c-0.299-0.045-0.535-0.177-0.713-0.381c-0.173-0.206-0.261-0.548-0.268-1.04c0.007-0.461,0.099-0.795,0.278-1
			c0.181-0.205,0.429-0.337,0.747-0.385c0.315-0.049,0.686-0.07,1.092-0.066c0.356-0.004,0.676,0.015,0.959,0.066
			c0.288,0.043,0.512,0.164,0.685,0.354c0.165,0.207,0.253,0.527,0.253,0.966v0.165H54.45v-0.162
			c0.007-0.269-0.06-0.433-0.194-0.501c-0.141-0.062-0.375-0.089-0.721-0.079c-0.32,0-0.56,0.012-0.727,0.047
			c-0.164,0.032-0.275,0.095-0.328,0.187c-0.061,0.095-0.082,0.229-0.078,0.409c0,0.209,0.018,0.354,0.07,0.449
			c0.052,0.094,0.159,0.162,0.324,0.193c0.162,0.029,0.405,0.051,0.732,0.069c0.524,0.025,0.928,0.071,1.227,0.134
			c0.287,0.068,0.496,0.204,0.613,0.398c0.117,0.207,0.176,0.521,0.172,0.95c-0.004,0.468-0.08,0.82-0.23,1.044
			c-0.145,0.225-0.372,0.367-0.67,0.433c-0.293,0.063-0.663,0.093-1.105,0.089c-0.383,0.007-0.732-0.01-1.06-0.048
			c-0.32-0.041-0.586-0.163-0.779-0.363c-0.198-0.205-0.298-0.544-0.304-1.028V94.118z M47,90.628l0.983-0.002l0.003,3.642
			c-0.012,0.469-0.095,0.811-0.278,1.028c-0.181,0.221-0.436,0.354-0.752,0.42c-0.32,0.061-0.694,0.082-1.11,0.078
			c-0.406,0.004-0.765-0.018-1.084-0.078c-0.317-0.061-0.571-0.199-0.758-0.412c-0.184-0.226-0.276-0.564-0.281-1.036v-3.642
			l0.986,0.002v3.64c-0.01,0.175,0.02,0.313,0.08,0.41c0.06,0.098,0.174,0.175,0.339,0.213c0.167,0.048,0.404,0.063,0.717,0.063
			c0.444,0.002,0.75-0.04,0.919-0.14c0.168-0.095,0.244-0.276,0.235-0.547V90.628z M39.159,91.436l-1.613,4.313h-0.884
			c0,0-0.019,0.004-1.644-4.297l0.084,4.301h-0.986v-5.127h1.581l1.393,3.804l1.391-3.804l1.612,0.002v5.125h-0.979l0.076-4.317
			H39.159z"/>
		<rect x="59.066" y="90.583" fill="#FFFFFF" width="0.73" height="5.122"/>
	</g>
</g>
</svg>
